HIERARCHY
ROOT Hips
{
	OFFSET 0.00000 0.00000 0.00000
	CHANNELS 6 Xposition Yposition Zposition Zrotation Yrotation Xrotation 
	JOINT LHipJoint
	{
		OFFSET 0 0 0
		CHANNELS 3 Zrotation Yrotation Xrotation
		JOINT LeftUpLeg
		{
			OFFSET 1.80322 -1.53100 0.99595
			CHANNELS 3 Zrotation Yrotation Xrotation
			JOINT LeftLeg
			{
				OFFSET 2.25177 -6.18669 0.00000
				CHANNELS 3 Zrotation Yrotation Xrotation
				JOINT LeftFoot
				{
					OFFSET 2.26601 -6.22582 0.00000
					CHANNELS 3 Zrotation Yrotation Xrotation
					JOINT LeftToeBase
					{
						OFFSET 0.23701 -0.65119 2.15848
						CHANNELS 3 Zrotation Yrotation Xrotation
						End Site
						{
							OFFSET 0.00000 -0.00000 1.12949
						}
					}
				}
			}
		}
	}
	JOINT RHipJoint
	{
		OFFSET 0 0 0
		CHANNELS 3 Zrotation Yrotation Xrotation
		JOINT RightUpLeg
		{
			OFFSET -1.93977 -1.53100 0.99595
			CHANNELS 3 Zrotation Yrotation Xrotation
			JOINT RightLeg
			{
				OFFSET -2.28036 -6.26523 0.00000
				CHANNELS 3 Zrotation Yrotation Xrotation
				JOINT RightFoot
				{
					OFFSET -2.25490 -6.19528 0.00000
					CHANNELS 3 Zrotation Yrotation Xrotation
					JOINT RightToeBase
					{
						OFFSET -0.28375 -0.77960 2.23137
						CHANNELS 3 Zrotation Yrotation Xrotation
						End Site
						{
							OFFSET -0.00000 -0.00000 1.17899
						}
					}
				}
			}
		}
	}
	JOINT LowerBack
	{
		OFFSET 0 0 0
		CHANNELS 3 Zrotation Yrotation Xrotation
		JOINT Spine
		{
			OFFSET -0.00088 2.12090 -0.02806
			CHANNELS 3 Zrotation Yrotation Xrotation
			JOINT Spine1
			{
				OFFSET -0.00286 2.09666 0.12974
				CHANNELS 3 Zrotation Yrotation Xrotation
				JOINT Neck
				{
					OFFSET 0 0 0
					CHANNELS 3 Zrotation Yrotation Xrotation
					JOINT Neck1
					{
						OFFSET 0.07328 1.83526 0.07290
						CHANNELS 3 Zrotation Yrotation Xrotation
						JOINT Head
						{
							OFFSET -0.06683 1.74974 -0.49542
							CHANNELS 3 Zrotation Yrotation Xrotation
							End Site
							{
								OFFSET -0.03398 1.85163 -0.17573
							}
						}
					}
				}
				JOINT LeftShoulder
				{
					OFFSET 0 0 0
					CHANNELS 3 Zrotation Yrotation Xrotation
					JOINT LeftArm
					{
						OFFSET 3.02113 1.18018 0.40602
						CHANNELS 3 Zrotation Yrotation Xrotation
						JOINT LeftForeArm
						{
							OFFSET 4.58538 -0.00000 -0.00000
							CHANNELS 3 Zrotation Yrotation Xrotation
							JOINT LeftHand
							{
								OFFSET 2.68935 -0.00000 -0.00000
								CHANNELS 3 Zrotation Yrotation Xrotation
								JOINT LeftFingerBase
								{
									OFFSET 0 0 0
									CHANNELS 3 Zrotation Yrotation Xrotation
									JOINT LeftHandIndex1
									{
										OFFSET 0.58506 -0.00000 -0.00000
										CHANNELS 3 Zrotation Yrotation Xrotation
										End Site
										{
											OFFSET 0.47169 -0.00000 -0.00000
										}
									}
								}
								JOINT LThumb
								{
									OFFSET 0 0 0
									CHANNELS 3 Zrotation Yrotation Xrotation
									End Site
									{
										OFFSET 0.47889 -0.00000 0.47889
									}
								}
							}
						}
					}
				}
				JOINT RightShoulder
				{
					OFFSET 0 0 0
					CHANNELS 3 Zrotation Yrotation Xrotation
					JOINT RightArm
					{
						OFFSET -2.95074 1.18843 0.31430
						CHANNELS 3 Zrotation Yrotation Xrotation
						JOINT RightForeArm
						{
							OFFSET -4.47450 -0.00000 -0.00000
							CHANNELS 3 Zrotation Yrotation Xrotation
							JOINT RightHand
							{
								OFFSET -2.93896 -0.00000 -0.00000
								CHANNELS 3 Zrotation Yrotation Xrotation
								JOINT RightFingerBase
								{
									OFFSET 0 0 0
									CHANNELS 3 Zrotation Yrotation Xrotation
									JOINT RightHandIndex1
									{
										OFFSET -0.40509 -0.00000 -0.00000
										CHANNELS 3 Zrotation Yrotation Xrotation
										End Site
										{
											OFFSET -0.32660 -0.00000 -0.00000
										}
									}
								}
								JOINT RThumb
								{
									OFFSET 0 0 0
									CHANNELS 3 Zrotation Yrotation Xrotation
									End Site
									{
										OFFSET -0.33158 -0.00000 0.33158
									}
								}
							}
						}
					}
				}
			}
		}
	}
}
MOTION
Frames: 9
Frame Time: .0083333
2.4363 14.5323 0.4193 0 0 0 0 0 0 -21 0 0 0 0 0 0 0 0 0 0 0 0 0 0 21 0 0 0 0 0 0 0 0 0 0 0 0 0 0 0 0 0 0 0 0 0 0 -16 0 0 21 0 0 11 0 0 0 -8 0 0 0 0 0 0 0 0 0 0 0 0 0 0 0 0 0 0 0 0 8 0 0 0 0 0 0 0 0 0 0 0 0 0 0 0 0 0
2.4363 14.5323 0.4193 2.7612 11.2641 12.8597 0.0000 0.0000 0.0000 -20.1136 -12.3468 7.2898 1.3117 7.2546 20.4719 3.0251 16.4844 -41.7054 0.1344 -2.3629 -6.5096 0.0000 0.0000 0.0000 -2.9705 13.1979 -46.6600 -5.6009 -14.0302 43.3583 0.5072 -12.8539 -7.9680 -0.3032 3.5404 -9.7870 -3.5500 -1.6080 -4.9525 -0.3482 -2.0899 -7.8113 1.6124 -0.8508 -5.2262 6.7420 0.7667 -13.9433 -3.3370 0.4339 38.2839 -2.5680 0.7506 15.9670 0.0000 0.0000 0.0000 -76.6450 -27.0533 53.2128 155.1311 -36.0696 -111.7874 -0.0000 -0.0000 4.9174 24.3582 4.4490 2.0114 -7.1250 0.0000 -0.0000 -1.9015 34.8566 0.4738 0.0000 0.0000 0.0000 72.2597 30.5839 43.7842 -153.9301 37.2776 -111.0701 0.0000 -0.0000 -14.2934 -31.3359 2.5085 -1.5265 7.1250 -0.0000 -0.0000 -3.6308 -27.0392 -1.5863
2.4415 14.5330 0.4154 2.7550 11.2407 12.8238 0.0000 0.0000 0.0000 -20.1402 -12.3078 7.3049 1.3122 7.2560 20.4759 3.0173 16.5077 -41.6877 0.1392 -2.4045 -6.6250 0.0000 0.0000 0.0000 -2.9790 13.2199 -46.5805 -5.5799 -14.0085 43.2716 0.5102 -12.8783 -7.9255 -0.3060 3.5564 -9.8320 -3.5720 -1.6067 -4.9644 -0.3527 -2.0880 -7.8408 1.6200 -0.8479 -5.2507 6.7114 0.7716 -13.8270 -3.2754 0.4370 38.2677 -2.5335 0.7561 15.9306 0.0000 0.0000 0.0000 -76.5929 -27.0434 53.1864 155.2481 -35.9494 -111.8562 -0.0000 -0.0000 4.9567 23.8939 4.2889 1.8976 -7.1250 0.0000 -0.0000 -2.2767 34.6620 0.5782 0.0000 0.0000 0.0000 72.2970 30.5128 43.9562 -154.1490 37.0612 -111.2023 0.0000 -0.0000 -14.6667 -31.1973 2.4427 -1.4784 7.1250 -0.0000 -0.0000 -3.5287 -27.1205 -1.5348
2.4462 14.5352 0.4108 2.7229 11.2476 12.8003 0.0000 0.0000 0.0000 -20.1159 -12.2783 7.2979 1.3115 7.2541 20.4704 3.0234 16.4492 -41.6725 0.1348 -2.3662 -6.5187 0.0000 0.0000 0.0000 -2.9685 13.2616 -46.5011 -5.5592 -13.9871 43.1859 0.5175 -12.9540 -7.9127 -0.3055 3.5537 -9.8243 -3.5688 -1.6219 -4.9952 -0.3447 -2.1071 -7.8664 1.6259 -0.8569 -5.2595 6.6972 0.7757 -13.8733 -3.2531 0.4358 38.3867 -2.5253 0.7596 16.0032 -0.0000 -0.0000 0.0000 -76.5442 -27.0336 53.1338 155.3395 -35.8550 -111.9098 -0.0000 -0.0000 4.9346 23.5478 4.1211 1.7939 -7.1250 0.0000 -0.0000 -2.5523 34.4651 0.6605 -0.0000 -0.0000 0.0000 72.3226 30.5899 44.0847 -154.2565 36.9543 -111.2670 0.0000 -0.0000 -14.9474 -31.2110 2.6601 -1.6107 7.1250 -0.0000 -0.0000 -3.5267 -26.8664 -1.5550
2.4493 14.5364 0.4075 2.7171 11.2027 12.7636 0.0000 0.0000 0.0000 -20.1328 -12.2153 7.3091 1.3106 7.2515 20.4627 3.0156 16.4605 -41.6460 0.1359 -2.3763 -6.5467 0.0000 0.0000 0.0000 -2.9938 13.3700 -46.4188 -5.5400 -13.9672 43.1063 0.5279 -13.0566 -7.8664 -0.3087 3.5718 -9.8749 -3.6091 -1.6266 -5.0195 -0.3521 -2.1127 -7.8986 1.6405 -0.8569 -5.2791 6.8086 0.7955 -13.7342 -3.3341 0.4749 38.4254 -2.5740 0.7826 15.9928 -0.0000 -0.0000 0.0000 -76.4708 -27.0527 53.1218 155.3684 -35.8251 -111.9267 -0.0000 -0.0000 4.8540 23.3371 4.0958 1.7650 -7.1250 0.0000 -0.0000 -2.7245 34.4293 0.7075 -0.0000 -0.0000 0.0000 72.3955 30.6100 44.1278 -154.1687 37.0417 -111.2142 0.0000 -0.0000 -14.7503 -31.2288 2.5283 -1.5321 7.1250 -0.0000 -0.0000 -3.5478 -27.0196 -1.5516
2.4534 14.5377 0.4040 2.7034 11.1686 12.7231 0.0000 0.0000 0.0000 -20.1472 -12.1650 7.3323 1.3092 7.2479 20.4520 3.0125 16.4603 -41.6322 0.1355 -2.3727 -6.5367 0.0000 0.0000 0.0000 -3.0057 13.4514 -46.3315 -5.5207 -13.9472 43.0263 0.5360 -13.1369 -7.8298 -0.3111 3.5856 -9.9135 -3.6240 -1.6305 -5.0499 -0.3584 -2.1169 -7.9178 1.6416 -0.8581 -5.2822 6.8604 0.8072 -13.6718 -3.3557 0.4909 38.4984 -2.5917 0.7961 16.0170 -0.0000 -0.0000 0.0000 -76.4074 -27.0832 53.0987 155.4019 -35.7904 -111.9463 -0.0000 -0.0000 4.8002 23.1259 4.0356 1.7215 -7.1250 0.0000 -0.0000 -2.8947 34.3556 0.7570 -0.0000 -0.0000 0.0000 72.4446 30.6494 44.1749 -154.1200 37.0900 -111.1848 0.0000 -0.0000 -14.6595 -31.2070 2.5126 -1.5213 7.1250 -0.0000 -0.0000 -3.5320 -27.0386 -1.5431
2.4577 14.5387 0.4007 2.6915 11.1234 12.6753 0.0000 0.0000 0.0000 -20.1711 -12.1107 7.3758 1.3060 7.2395 20.4268 3.0092 16.4677 -41.6227 0.1343 -2.3617 -6.5064 0.0000 0.0000 0.0000 -3.0222 13.5477 -46.2408 -5.5035 -13.9293 42.9550 0.5443 -13.2187 -7.7960 -0.3134 3.5986 -9.9499 -3.6355 -1.6315 -5.0810 -0.3677 -2.1174 -7.9300 1.6376 -0.8579 -5.2777 6.9132 0.8212 -13.6212 -3.3731 0.5075 38.5882 -2.6083 0.8110 16.0530 -0.0000 -0.0000 0.0000 -76.3476 -27.1340 53.0821 155.4011 -35.7912 -111.9459 -0.0000 -0.0000 4.7420 23.0022 3.9991 1.6958 -7.1250 0.0000 -0.0000 -2.9942 34.3113 0.7863 -0.0000 -0.0000 0.0000 72.4899 30.7017 44.1811 -154.0035 37.2053 -111.1145 0.0000 -0.0000 -14.4506 -31.1756 2.4840 -1.5021 7.1250 -0.0000 -0.0000 -3.5097 -27.0731 -1.5304
2.4621 14.5394 0.3977 2.6869 11.0684 12.6179 0.0000 0.0000 0.0000 -20.2119 -12.0559 7.4387 1.3025 7.2301 20.3990 3.0071 16.4829 -41.6241 0.1326 -2.3475 -6.4671 0.0000 0.0000 0.0000 -3.0459 13.6502 -46.1418 -5.4870 -13.9121 42.8865 0.5523 -13.2965 -7.7613 -0.3156 3.6112 -9.9852 -3.6472 -1.6289 -5.1073 -0.3822 -2.1132 -7.9359 1.6284 -0.8557 -5.2696 6.9542 0.8361 -13.5776 -3.3716 0.5214 38.6897 -2.6153 0.8260 16.0968 -0.0000 0.0000 0.0000 -76.2915 -27.1989 53.0719 155.3760 -35.8172 -111.9312 -0.0000 -0.0000 4.6763 22.9458 3.9894 1.6871 -7.1250 0.0000 -0.0000 -3.0400 34.2986 0.7993 -0.0000 0.0000 0.0000 72.5267 30.7550 44.1527 -153.8392 37.3671 -111.0149 0.0000 -0.0000 -14.1637 -31.1240 2.4323 -1.4679 7.1250 -0.0000 -0.0000 -3.4732 -27.1348 -1.5094
2.4666 14.5399 0.3949 2.6887 11.0077 12.5529 0.0000 0.0000 0.0000 -20.2657 -11.9999 7.5184 1.2981 7.2184 20.3641 3.0054 16.5028 -41.6311 0.1305 -2.3289 -6.4155 0.0000 0.0000 0.0000 -3.0775 13.7588 -46.0364 -5.4720 -13.8964 42.8238 0.5601 -13.3733 -7.7303 -0.3171 3.6201 -10.0102 -3.6593 -1.6245 -5.1288 -0.3995 -2.1068 -7.9342 1.6166 -0.8527 -5.2563 6.9777 0.8524 -13.5548 -3.3473 0.5322 38.8058 -2.6103 0.8407 16.1532 -0.0000 -0.0000 0.0000 -76.2402 -27.2775 53.0600 155.3327 -35.8620 -111.9058 -0.0000 -0.0000 4.6014 22.9412 3.9994 1.6909 -7.1250 0.0000 -0.0000 -3.0443 34.3093 0.7996 -0.0000 -0.0000 0.0000 72.5503 30.8150 44.1001 -153.6464 37.5558 -110.8977 0.0000 -0.0000 -13.8525 -31.0607 2.3607 -1.4211 7.1250 -0.0000 -0.0000 -3.4287 -27.2203 -1.4831
